<svg width="20" height="19" viewBox="0 0 20 19" fill="none" xmlns="http://www.w3.org/2000/svg">
<path d="M19.0859 4.06641C19.7383 4.77344 20.0391 5.61719 19.9961 6.63281V14.5391C19.9805 15.5703 19.6367 16.418 18.9609 17.082C18.2891 17.7461 17.4336 18.0937 16.4023 18.125H3.59453C2.56133 18.0937 1.71133 17.7422 1.04453 17.0625C0.378203 16.3828 0.0299609 15.4883 0 14.3828V6.63281C0.0299609 5.61719 0.378203 4.77344 1.04453 4.06641C1.71133 3.42773 2.56133 3.07695 3.59453 3.04688H4.74219L3.75195 2.03867C3.52734 1.81484 3.41484 1.53086 3.41484 1.1875C3.41484 0.84375 3.52734 0.560156 3.75195 0.336055C3.97656 0.112031 4.26172 0 4.60547 0C4.94922 0 5.23438 0.112031 5.46094 0.336055L8.32422 3.04688H11.7617L14.6719 0.336055C14.9102 0.112031 15.2031 0 15.5469 0C15.8906 0 16.1758 0.112031 16.4023 0.336055C16.625 0.560156 16.7383 0.84375 16.7383 1.1875C16.7383 1.53086 16.625 1.81484 16.4023 2.03867L15.4141 3.04688H16.5586C17.5898 3.07695 18.4336 3.42773 19.0859 4.06641ZM17.5703 6.78906C17.5547 6.41406 17.4258 6.10938 17.1523 5.87109C16.9492 5.63281 16.6055 5.50391 16.2656 5.48828H3.75195C3.37734 5.50391 3.07031 5.63281 2.83086 5.87109C2.59102 6.10938 2.46367 6.41406 2.44883 6.78906V14.3828C2.44883 14.7422 2.57617 15.0469 2.83086 15.3008C3.08555 15.5547 3.39258 15.6836 3.75195 15.6836H16.2656C16.625 15.6836 16.9297 15.5547 17.1758 15.3008C17.4219 15.0469 17.5547 14.7422 17.5703 14.3828V6.78906ZM7.24609 8.45703C7.49219 8.70313 7.625 9.00781 7.64063 9.36328V10.6641C7.625 11.0234 7.49609 11.3242 7.25781 11.5703C7.01563 11.8164 6.71094 11.9414 6.33594 11.9414C5.96094 11.9414 5.65234 11.8164 5.41406 11.5703C5.17578 11.3242 5.04688 11.0234 5.03125 10.6641V9.36328C5.04688 9.00781 5.17969 8.70313 5.42578 8.45703C5.67187 8.21094 5.94141 8.08203 6.33594 8.06641C6.69531 8.08203 7 8.21094 7.24609 8.45703ZM14.7266 8.45703C14.9727 8.70313 15.1055 9.00781 15.1211 9.36328V10.6641C15.1055 11.0234 14.9766 11.3242 14.7383 11.5703C14.5 11.8164 14.1914 11.9414 13.8164 11.9414C13.4414 11.9414 13.1367 11.8164 12.8945 11.5703C12.6211 11.3242 12.5273 11.0234 12.5156 10.6641V9.36328C12.5273 9.00781 12.6602 8.70313 12.9062 8.45703C13.1523 8.21094 13.457 8.08203 13.8164 8.06641C14.1758 8.08203 14.4805 8.21094 14.7266 8.45703Z" fill="black"/>
</svg>
