<svg width="42" height="23" viewBox="0 0 42 23" fill="none" xmlns="http://www.w3.org/2000/svg">
<path d="M16.384 1.136C16.384 0.912 16.392 0.8 16.408 0.8C16.424 0.8 16.784 0.903999 17.488 1.112C18.192 1.32 18.552 1.432 18.568 1.448C18.584 1.464 18.544 1.568 18.448 1.76C18.384 1.952 18.256 2.16 18.064 2.384C17.904 2.608 17.68 2.848 17.392 3.104C17.104 3.392 16.784 3.664 16.432 3.92C16.08 4.208 15.76 4.432 15.472 4.592C15.216 4.784 15.056 4.848 14.992 4.784C14.928 4.72 14.928 4.64 14.992 4.544C15.152 4.288 15.28 4.064 15.376 3.872C15.6 3.52 15.776 3.168 15.904 2.816C16.064 2.432 16.176 2.112 16.24 1.856C16.304 1.6 16.352 1.36 16.384 1.136ZM10.816 1.184C10.88 1.184 11.096 1.256 11.464 1.4C11.832 1.544 12.144 1.68 12.4 1.808C12.72 1.968 13.016 2.136 13.288 2.312C13.56 2.488 13.824 2.72 14.08 3.008C14.336 3.232 14.528 3.472 14.656 3.728C14.752 3.952 14.784 4.08 14.752 4.112C14.72 4.144 14.4 4.336 13.792 4.688C13.152 5.072 12.824 5.264 12.808 5.264C12.792 5.264 12.784 5.208 12.784 5.096C12.784 4.984 12.736 4.752 12.64 4.4C12.544 4.048 12.424 3.712 12.28 3.392C12.136 3.072 11.952 2.784 11.728 2.528C11.504 2.24 11.28 1.984 11.056 1.76C10.8 1.504 10.68 1.336 10.696 1.256C10.712 1.176 10.752 1.152 10.816 1.184ZM4.528 1.856C5.328 1.856 5.728 1.864 5.728 1.88C5.728 1.896 5.664 2.16 5.536 2.672C5.408 3.12 5.28 3.52 5.152 3.872C5.056 4.224 5.016 4.416 5.032 4.448C5.048 4.48 5.552 4.496 6.544 4.496H8.032V4.928V5.408H6.352H4.624L4.384 6.032C4.192 6.48 3.984 6.928 3.76 7.376C3.536 7.824 3.424 8.056 3.424 8.072C3.424 8.088 4.192 8.096 5.728 8.096H8.032V8.576V9.008H6.928H5.872V10.544L5.92 12.08H6.976H8.032V12.56V13.04H6.928H5.872V15.488C5.872 17.152 5.84 18.08 5.776 18.272C5.712 18.528 5.68 18.672 5.68 18.704C5.68 18.768 5.728 18.784 5.824 18.752C5.92 18.72 6.24 18.624 6.784 18.464L7.936 18.08L7.888 18.512V18.992L5.392 19.856C3.728 20.4 2.88 20.664 2.848 20.648C2.816 20.632 2.8 20.488 2.8 20.216C2.8 19.944 2.832 19.792 2.896 19.76C2.96 19.728 3.12 19.664 3.376 19.568L3.76 19.424L3.808 16.256V13.04H2.992H2.176V12.56V12.08H2.992H3.808V10.544V9.008H3.328H2.848L2.464 9.536C2.176 9.888 1.872 10.24 1.552 10.592C1.2 10.976 0.912 11.232 0.688 11.36C0.528 11.52 0.384 11.6 0.256 11.6C0.128 11.6 0.0640001 11.592 0.0640001 11.576C0.0640001 11.56 0.128 11.456 0.256 11.264C0.384 11.104 0.544 10.848 0.736 10.496C0.928 10.112 1.12 9.68 1.312 9.2C1.504 8.752 1.712 8.208 1.936 7.568C2.16 6.96 2.336 6.384 2.464 5.84C2.624 5.328 2.768 4.752 2.896 4.112C3.024 3.472 3.136 2.944 3.232 2.528L3.328 1.856H4.528ZM11.632 4.88V5.168V5.456H14.704H17.824V5.168V4.88H18.88H19.888V7.664C19.856 9.552 19.808 10.64 19.744 10.928C19.68 11.216 19.568 11.488 19.408 11.744C19.312 12 19.168 12.224 18.976 12.416C18.816 12.576 18.672 12.688 18.544 12.752C18.416 12.816 18.272 12.848 18.112 12.848H17.824V12.464L17.776 12.128L17.344 12.08H16.864V15.776C16.864 17.088 16.872 18.032 16.888 18.608C16.904 19.184 16.928 19.504 16.96 19.568C16.992 19.632 17.04 19.712 17.104 19.808C17.2 19.872 17.296 19.936 17.392 20C17.52 20.064 18.048 20.112 18.976 20.144H20.416V20.336C20.448 20.496 20.44 20.64 20.392 20.768C20.344 20.896 20.272 21.008 20.176 21.104L19.984 21.248H18.256C17.136 21.248 16.464 21.2 16.24 21.104C16.048 21.04 15.88 20.944 15.736 20.816C15.592 20.688 15.48 20.552 15.4 20.408C15.32 20.264 15.28 20.112 15.28 19.952C15.248 19.664 15.232 18.32 15.232 15.92V12.128L14.752 12.08H14.32V13.952C14.288 15.168 14.224 15.944 14.128 16.28C14.032 16.616 13.904 16.944 13.744 17.264C13.584 17.584 13.408 17.872 13.216 18.128C13.056 18.384 12.848 18.672 12.592 18.992C12.336 19.28 12.096 19.536 11.872 19.76C11.616 19.984 11.376 20.176 11.152 20.336C10.928 20.496 10.656 20.672 10.336 20.864C10.048 21.056 9.76 21.216 9.472 21.344C9.216 21.472 8.912 21.616 8.56 21.776C8.208 21.936 8.032 21.984 8.032 21.92C8.032 21.856 8.064 21.728 8.128 21.536C8.192 21.312 8.368 21.12 8.656 20.96C8.944 20.8 9.232 20.608 9.52 20.384C9.808 20.16 10.08 19.92 10.336 19.664C10.592 19.408 10.816 19.152 11.008 18.896C11.232 18.608 11.408 18.336 11.536 18.08C11.696 17.792 11.824 17.504 11.92 17.216C12.016 16.896 12.08 16.592 12.112 16.304C12.144 16.016 12.16 15.232 12.16 13.952V12.08H11.584H11.008L10.72 12.416C10.528 12.608 10.376 12.728 10.264 12.776C10.152 12.824 10 12.848 9.808 12.848H9.568V8.864V4.88H10.576H11.632ZM11.632 6.416V8.528C11.6 9.936 11.552 10.72 11.488 10.88L11.44 11.168H14.608H17.824V8.768L17.776 6.416H14.704H11.632ZM30.2659 1.856V2.096V2.288H34.9219H39.5299V2.096V1.856H40.7779H41.9779V10.256C41.9779 15.856 41.9379 18.8 41.8579 19.088C41.7779 19.376 41.6739 19.648 41.5459 19.904C41.4179 20.16 41.2739 20.368 41.1139 20.528C40.9539 20.72 40.8259 20.832 40.7299 20.864C40.6339 20.928 40.4099 20.96 40.0579 20.96H39.5299V20.288V19.568H34.7299L29.9299 19.616L29.7859 19.952C29.6579 20.208 29.5299 20.4 29.4019 20.528C29.3059 20.656 29.1939 20.752 29.0659 20.816C28.9699 20.912 28.7299 20.96 28.3459 20.96H27.7699V11.408V1.856H29.0179H30.2659ZM30.2659 14.096V16.256C30.2659 17.696 30.2499 18.448 30.2179 18.512L30.1699 18.656H34.8739H39.5299V16.4V14.096H34.9219H30.2659ZM30.2659 7.76H39.5299V3.248H30.2659V7.76ZM30.2659 13.184H39.5299V8.624H30.2659V13.184Z" fill="#009FA1"/>
</svg>
