<svg width="18" height="18" viewBox="0 0 18 18" fill="none" xmlns="http://www.w3.org/2000/svg">
<path d="M17.125 5.5625V8.6875C17.125 8.85326 17.0592 9.01223 16.9419 9.12944C16.8247 9.24665 16.6658 9.3125 16.5 9.3125C15.1944 9.31593 13.9076 9.00225 12.75 8.39844V11.1875C12.7501 12.3171 12.4281 13.4233 11.8216 14.3762C11.2151 15.3292 10.3493 16.0893 9.32594 16.5675C8.30256 17.0457 7.16401 17.222 6.04394 17.0758C4.92386 16.9296 3.86873 16.4669 3.00239 15.742C2.13606 15.0172 1.49447 14.0602 1.15292 12.9835C0.811375 11.9068 0.784052 10.755 1.07416 9.66333C1.36426 8.57164 1.95976 7.58535 2.79075 6.82023C3.62174 6.05511 4.65374 5.54291 5.76562 5.34375C5.85484 5.32774 5.94646 5.33133 6.03415 5.35426C6.12184 5.3772 6.20349 5.41893 6.27344 5.47656C6.34554 5.53476 6.40343 5.60864 6.44269 5.69257C6.48195 5.77651 6.50155 5.86829 6.5 5.96094V9.21094C6.50033 9.32928 6.46663 9.44523 6.40292 9.54496C6.3392 9.64469 6.24815 9.724 6.14063 9.77344C5.8884 9.89357 5.673 10.0791 5.51685 10.3108C5.3607 10.5425 5.26952 10.8117 5.2528 11.0906C5.23609 11.3695 5.29445 11.6477 5.4218 11.8964C5.54916 12.1451 5.74085 12.355 5.97692 12.5044C6.21299 12.6538 6.4848 12.7372 6.76404 12.7459C7.04328 12.7545 7.31973 12.6882 7.56461 12.5537C7.80949 12.4192 8.01384 12.2215 8.15636 11.9813C8.29889 11.741 8.37439 11.4669 8.375 11.1875V1.1875C8.375 1.02174 8.44085 0.862768 8.55806 0.745558C8.67527 0.628348 8.83424 0.5625 9 0.5625H12.125C12.2908 0.5625 12.4497 0.628348 12.5669 0.745558C12.6842 0.862768 12.75 1.02174 12.75 1.1875C12.75 2.18206 13.1451 3.13589 13.8483 3.83915C14.5516 4.54241 15.5054 4.9375 16.5 4.9375C16.6658 4.9375 16.8247 5.00335 16.9419 5.12056C17.0592 5.23777 17.125 5.39674 17.125 5.5625Z" fill="black"/>
</svg>
