<svg width="20" height="15" viewBox="0 0 20 15" fill="none" xmlns="http://www.w3.org/2000/svg">
<path fill-rule="evenodd" clip-rule="evenodd" d="M10 10.9094C10.1894 10.9094 10.3711 10.8376 10.5051 10.7097C10.639 10.5819 10.7143 10.4085 10.7143 10.2277V2.32876L13.78 5.25625C13.8464 5.31963 13.9253 5.36992 14.012 5.40422C14.0988 5.43853 14.1918 5.45618 14.2857 5.45618C14.3796 5.45618 14.4726 5.43853 14.5594 5.40422C14.6462 5.36992 14.725 5.31963 14.7914 5.25625C14.8578 5.19286 14.9105 5.11761 14.9465 5.03479C14.9824 4.95197 15.0009 4.8632 15.0009 4.77356C15.0009 4.68392 14.9824 4.59515 14.9465 4.51233C14.9105 4.42951 14.8578 4.35426 14.7914 4.29087L10.5057 0.200293C10.4394 0.136803 10.3605 0.0864308 10.2738 0.0520612C10.187 0.0176915 10.094 0 10 0C9.90605 0 9.81302 0.0176915 9.72624 0.0520612C9.63946 0.0864308 9.56064 0.136803 9.49429 0.200293L5.20857 4.29087C5.07445 4.41889 4.9991 4.59252 4.9991 4.77356C4.9991 4.9546 5.07445 5.12823 5.20857 5.25625C5.3427 5.38426 5.52461 5.45618 5.71429 5.45618C5.90397 5.45618 6.08588 5.38426 6.22 5.25625L9.28571 2.32876V10.2277C9.28571 10.4085 9.36097 10.5819 9.49492 10.7097C9.62888 10.8376 9.81056 10.9094 10 10.9094ZM0 14.3182C0 14.1374 0.0752549 13.964 0.209209 13.8362C0.343164 13.7083 0.524845 13.6365 0.714286 13.6365H19.2857C19.4752 13.6365 19.6568 13.7083 19.7908 13.8362C19.9247 13.964 20 14.1374 20 14.3182C20 14.4991 19.9247 14.6725 19.7908 14.8003C19.6568 14.9282 19.4752 15 19.2857 15H0.714286C0.524845 15 0.343164 14.9282 0.209209 14.8003C0.0752549 14.6725 0 14.4991 0 14.3182Z" fill="#F8F9FA"/>
</svg>
