<svg width="20" height="20" viewBox="0 0 20 20" fill="none" xmlns="http://www.w3.org/2000/svg">
<path d="M8.04 12.0775C7.685 11.93 7.23 12.0825 7.01 12.425C6.79 12.77 6.8925 13.18 7.2425 13.34C7.6 13.5025 8.0725 13.3475 8.2925 12.995C8.5125 12.6375 8.3975 12.23 8.04 12.0775ZM19.2 0H0.8C0.3575 0 0 0.3575 0 0.8V19.2C0 19.6425 0.3575 20 0.8 20H19.2C19.6425 20 20 19.6425 20 19.2V0.8C20 0.3575 19.6425 0 19.2 0ZM8.89 15.6C6.0275 15.6 3.1 14.21 3.1 11.9225C3.1 10.7275 3.855 9.345 5.1575 8.04C6.895 6.3 8.9225 5.505 9.685 6.27C10.0225 6.6075 10.055 7.19 9.8375 7.885C9.725 8.235 10.165 8.0425 10.165 8.0425C11.57 7.4525 12.795 7.4175 13.2425 8.06C13.4825 8.4025 13.4575 8.88 13.2375 9.4375C13.135 9.6925 13.27 9.7325 13.4625 9.79C14.255 10.035 15.135 10.63 15.135 11.6775C15.14 13.415 12.6425 15.6 8.89 15.6V15.6ZM14.0725 8.33C14.1198 8.18459 14.1281 8.02929 14.0965 7.87967C14.0649 7.73005 13.9946 7.59136 13.8925 7.4775C13.7903 7.36399 13.66 7.27947 13.5147 7.23249C13.3694 7.18552 13.2143 7.17776 13.065 7.21C13.0064 7.22248 12.9459 7.22329 12.887 7.21239C12.8281 7.20149 12.7719 7.17909 12.7216 7.14647C12.6714 7.11385 12.628 7.07166 12.5941 7.02229C12.5601 6.97292 12.5362 6.91735 12.5238 6.85875C12.5113 6.80015 12.5105 6.73966 12.5214 6.68075C12.5323 6.62183 12.5547 6.56564 12.5873 6.51538C12.6199 6.46512 12.6621 6.42178 12.7115 6.38782C12.7608 6.35387 12.8164 6.32998 12.875 6.3175C13.4775 6.19 14.1275 6.375 14.5675 6.865C15.01 7.355 15.1275 8.0225 14.94 8.61C14.9218 8.6669 14.8925 8.71963 14.8538 8.76517C14.8151 8.8107 14.7678 8.84813 14.7146 8.87532C14.6614 8.9025 14.6033 8.9189 14.5438 8.92356C14.4842 8.92823 14.4243 8.92107 14.3675 8.9025C14.3105 8.88438 14.2576 8.85518 14.2119 8.81657C14.1661 8.77797 14.1285 8.73071 14.1011 8.67752C14.0737 8.62433 14.0571 8.56625 14.0521 8.50661C14.0472 8.44697 14.0542 8.38696 14.0725 8.33V8.33ZM16.7225 9.1875C16.7225 9.1875 16.7225 9.19 16.7225 9.1875C16.7015 9.25376 16.6676 9.31522 16.6227 9.36833C16.5779 9.42145 16.523 9.46518 16.4612 9.497C16.3994 9.52883 16.3319 9.54813 16.2626 9.5538C16.1934 9.55946 16.1236 9.55137 16.0575 9.53C15.9239 9.48656 15.813 9.39183 15.7493 9.26666C15.6855 9.14148 15.6741 8.9961 15.7175 8.8625C15.9925 8.0075 15.8175 7.0325 15.175 6.3175C14.8695 5.97862 14.4802 5.72608 14.0462 5.58522C13.6122 5.44436 13.1488 5.42015 12.7025 5.515C12.6345 5.52952 12.5644 5.5305 12.496 5.51787C12.4277 5.50524 12.3625 5.47926 12.3042 5.4414C12.2459 5.40355 12.1957 5.35458 12.1564 5.29728C12.117 5.23999 12.0894 5.17549 12.075 5.1075C12.0602 5.03969 12.059 4.96963 12.0713 4.90134C12.0837 4.83305 12.1094 4.76788 12.1471 4.70957C12.1847 4.65126 12.2335 4.60096 12.2906 4.56156C12.3478 4.52216 12.4121 4.49445 12.48 4.48C13.715 4.2175 15.05 4.6 15.9575 5.6075C16.865 6.6125 17.11 7.985 16.7225 9.1875V9.1875ZM8.36 9.34C6.075 9.565 4.3425 10.9675 4.4925 12.47C4.64 13.9725 6.6125 15.0075 8.8975 14.7825C11.1825 14.555 12.915 13.155 12.765 11.65C12.6175 10.1475 10.645 9.1125 8.36 9.34V9.34ZM10.365 12.8825C9.8975 13.94 8.5575 14.5025 7.42 14.135C6.3225 13.78 5.8575 12.6925 6.3375 11.715C6.81 10.755 8.0375 10.2125 9.125 10.495C10.25 10.7875 10.825 11.85 10.365 12.8825V12.8825ZM8.9125 11.715C8.7775 11.66 8.6075 11.7275 8.5275 11.86C8.45 11.995 8.4925 12.1475 8.63 12.205C8.7675 12.2625 8.945 12.1975 9.025 12.06C9.1 11.92 9.05 11.765 8.9125 11.715V11.715Z" fill="black"/>
</svg>
