<svg width="20" height="18" viewBox="0 0 20 18" fill="none" xmlns="http://www.w3.org/2000/svg">
<path d="M13.375 5.54688C13.5972 5.54688 13.8125 5.55859 14.0278 5.58984C13.4514 2.52734 10.5313 0.25 7.21183 0.25C3.48961 0.25 0.451416 3.09375 0.451416 6.71094C0.451416 8.79687 1.46878 10.5195 3.15628 11.8516L2.48614 14.1406L4.84725 12.8086C5.69447 12.9961 6.36808 13.1875 7.2153 13.1875C7.43058 13.1875 7.63544 13.1758 7.85072 13.1562C7.71183 12.6523 7.63544 12.1172 7.63544 11.5625C7.63197 8.24609 10.1667 5.54688 13.375 5.54688V5.54688ZM9.74655 3.48047C10.25 3.48047 10.5868 3.85938 10.5868 4.43359C10.5868 5 10.25 5.37891 9.74655 5.37891C9.23267 5.37891 8.72919 5 8.72919 4.43359C8.73267 3.85938 9.23614 3.48047 9.74655 3.48047ZM5.01044 5.37891C4.50697 5.37891 3.99308 5 3.99308 4.43359C3.99308 3.85547 4.50697 3.48047 5.01044 3.48047C5.52433 3.48047 5.85767 3.85938 5.85767 4.43359C5.85767 5.00391 5.52433 5.37891 5.01044 5.37891ZM19.5486 11.4766C19.5486 8.43359 16.8438 5.95703 13.8056 5.95703C10.5868 5.95703 8.06253 8.43359 8.06253 11.4766C8.06253 14.5195 10.5903 16.9961 13.8056 16.9961C14.4757 16.9961 15.1563 16.7969 15.8403 16.6094L17.6945 17.7539L17.1806 15.8555C18.5417 14.707 19.5486 13.1875 19.5486 11.4766ZM11.941 10.5195C11.6042 10.5195 11.2709 10.1406 11.2709 9.75391C11.2709 9.375 11.6077 9 11.941 9C12.4549 9 12.7882 9.37891 12.7882 9.75391C12.7882 10.1445 12.4514 10.5195 11.941 10.5195ZM15.6597 10.5195C15.3229 10.5195 14.9896 10.1406 14.9896 9.75391C14.9896 9.375 15.3264 9 15.6597 9C16.1632 9 16.507 9.37891 16.507 9.75391C16.5104 10.1445 16.1632 10.5195 15.6597 10.5195Z" fill="black"/>
</svg>
